<svg width="1200" height="300" viewBox="0 0 1200 300" fill="none" xmlns="http://www.w3.org/2000/svg" role="img" aria-label="Federico Perez Diduch. Private pilot, flight dispatcher, backend developer. Route: SA:MP, dispatch, first calculator, Aerobot, Autopilot">
  <defs>
    <linearGradient id="bg" x1="0" y1="0" x2="1200" y2="300" gradientUnits="userSpaceOnUse">
      <stop offset="0" stop-color="#0B1220"/>
      <stop offset="1" stop-color="#0E2E35"/>
    </linearGradient>
  </defs>
  <rect width="1200" height="300" rx="14" fill="url(#bg)"/>
  <g fill="#7FB8BC" opacity="0.5">
    <circle cx="140" cy="40" r="1.3"/><circle cx="420" cy="28" r="1"/><circle cx="610" cy="58" r="1.2"/>
    <circle cx="880" cy="34" r="1"/><circle cx="1010" cy="70" r="1.3"/><circle cx="1150" cy="44" r="1"/>
  </g>
  <text x="60" y="78" font-family="Menlo,Consolas,monospace" font-size="13" letter-spacing="4" fill="#4AADB3">BUENOS AIRES · ARGENTINA</text>
  <text x="60" y="130" font-family="Helvetica Neue,Helvetica,Arial,sans-serif" font-size="44" font-weight="700" fill="#F1F5F9">Federico Perez Diduch</text>
  <text x="60" y="166" font-family="Helvetica Neue,Helvetica,Arial,sans-serif" font-size="18" fill="#94A3B8">Private pilot · Flight dispatcher · Backend developer</text>
  <path d="M60 258 C 300 250, 700 226, 1110 176" stroke="#2F6F74" stroke-width="2" stroke-dasharray="3 9" stroke-linecap="round"/>
  <g font-family="Menlo,Consolas,monospace" font-size="11" letter-spacing="1.5" fill="#94A3B8"><path d="M90 245 L97 257 L83 257 Z" fill="#0B1220" stroke="#4AADB3" stroke-width="2"/><text x="90" y="276" text-anchor="middle">SA:MP</text><path d="M330 231 L337 243 L323 243 Z" fill="#0B1220" stroke="#4AADB3" stroke-width="2"/><text x="330" y="262" text-anchor="middle">DISPATCH</text><path d="M570 215 L577 227 L563 227 Z" fill="#0B1220" stroke="#4AADB3" stroke-width="2"/><text x="570" y="246" text-anchor="middle">FIRST CALC</text><path d="M810 197 L817 209 L803 209 Z" fill="#0B1220" stroke="#4AADB3" stroke-width="2"/><text x="810" y="228" text-anchor="middle">AEROBOT</text><path d="M1050 177 L1057 189 L1043 189 Z" fill="#0B1220" stroke="#4AADB3" stroke-width="2"/><text x="1050" y="208" text-anchor="middle">AUTOPILOT</text></g>
  <g transform="translate(1122,172) rotate(-14) scale(1.25)">
    <path d="M20 0 L14 -2 L4 -2 L-4 -14 L-9 -14 L-4 -2 L-14 -2 L-18 -7 L-21 -7 L-19 0 L-21 7 L-18 7 L-14 2 L-4 2 L-9 14 L-4 14 L4 2 L14 2 Z" fill="#4AADB3"/>
  </g>
</svg>
